<svg xmlns="http://www.w3.org/2000/svg" width="98" height="36" viewBox="0 0 98 36" role="img" aria-labelledby="ps-title"><title id="ps-title">GitHub</title><defs><clipPath id="ps-clip"><rect width="98" height="36" rx="18"/></clipPath><radialGradient id="sg"><stop offset="0" stop-color="#E6E8F0" stop-opacity="0.22"/><stop offset="1" stop-color="#E6E8F0" stop-opacity="0"/></radialGradient><style>.sans{font-family:-apple-system,BlinkMacSystemFont,'Segoe UI','Inter',Helvetica,Arial,sans-serif}.mono{font-family:ui-monospace,SFMono-Regular,'JetBrains Mono','Cascadia Code',Consolas,Menlo,monospace}.fade{animation:ps-fade .6s ease-out backwards}@keyframes ps-fade{from{opacity:0}}.up{animation:ps-up .7s cubic-bezier(.2,.7,.2,1) backwards}@keyframes ps-up{from{opacity:0;transform:translateY(10px)}}@media (prefers-reduced-motion: reduce){*{animation:none!important;transition:none!important}}</style></defs><g clip-path="url(#ps-clip)"><rect width="98" height="36" fill="#11141D"/></g><circle cx="23" cy="18" r="17" fill="url(#sg)"/><g class="fade"><path transform="translate(14 9) scale(0.75)" fill="#E6E8F0" d="M12 .297c-6.63 0-12 5.373-12 12 0 5.303 3.438 9.8 8.205 11.385.6.113.82-.258.82-.577 0-.285-.01-1.04-.015-2.04-3.338.724-4.042-1.61-4.042-1.61C4.422 18.07 3.633 17.7 3.633 17.7c-1.087-.744.084-.729.084-.729 1.205.084 1.838 1.236 1.838 1.236 1.07 1.835 2.809 1.305 3.495.998.108-.776.417-1.305.76-1.605-2.665-.3-5.466-1.332-5.466-5.93 0-1.31.465-2.38 1.235-3.22-.135-.303-.54-1.523.105-3.176 0 0 1.005-.322 3.3 1.23.96-.267 1.98-.399 3-.405 1.02.006 2.04.138 3 .405 2.28-1.552 3.285-1.23 3.285-1.23.645 1.653.24 2.873.12 3.176.765.84 1.23 1.91 1.23 3.22 0 4.61-2.805 5.625-5.475 5.92.42.36.81 1.096.81 2.22 0 1.606-.015 2.896-.015 3.286 0 .315.21.69.825.57C20.565 22.092 24 17.592 24 12.297c0-6.627-5.373-12-12-12"/><text x="41" y="22.8" class="sans" font-size="13.5" font-weight="600" fill="#E6E8F0">GitHub</text></g><rect x=".5" y=".5" width="97" height="35" rx="18" fill="none" stroke="#232838"/></svg>
