<svg xmlns="http://www.w3.org/2000/svg" width="651" height="36" viewBox="0 0 651 36" role="img" aria-labelledby="g-title"><title id="g-title">Social link badges</title><svg x="0" y="0" width="98" height="36" viewBox="0 0 98 36"><title id="c0-ps-title">GitHub</title><defs><clipPath id="c0-ps-clip"><rect width="98" height="36" rx="18"/></clipPath><radialGradient id="c0-sg"><stop offset="0" stop-color="#E6E8F0" stop-opacity="0.22"/><stop offset="1" stop-color="#E6E8F0" stop-opacity="0"/></radialGradient><style>.sans{font-family:-apple-system,BlinkMacSystemFont,'Segoe UI','Inter',Helvetica,Arial,sans-serif}.mono{font-family:ui-monospace,SFMono-Regular,'JetBrains Mono','Cascadia Code',Consolas,Menlo,monospace}.fade{animation:ps-fade .6s ease-out backwards}@keyframes ps-fade{from{opacity:0}}.up{animation:ps-up .7s cubic-bezier(.2,.7,.2,1) backwards}@keyframes ps-up{from{opacity:0;transform:translateY(10px)}}@media (prefers-reduced-motion: reduce){*{animation:none!important;transition:none!important}}</style></defs><g clip-path="url(#c0-ps-clip)"><rect width="98" height="36" fill="#11141D"/></g><circle cx="23" cy="18" r="17" fill="url(#c0-sg)"/><g class="fade"><path transform="translate(14 9) scale(0.75)" fill="#E6E8F0" d="M12 .297c-6.63 0-12 5.373-12 12 0 5.303 3.438 9.8 8.205 11.385.6.113.82-.258.82-.577 0-.285-.01-1.04-.015-2.04-3.338.724-4.042-1.61-4.042-1.61C4.422 18.07 3.633 17.7 3.633 17.7c-1.087-.744.084-.729.084-.729 1.205.084 1.838 1.236 1.838 1.236 1.07 1.835 2.809 1.305 3.495.998.108-.776.417-1.305.76-1.605-2.665-.3-5.466-1.332-5.466-5.93 0-1.31.465-2.38 1.235-3.22-.135-.303-.54-1.523.105-3.176 0 0 1.005-.322 3.3 1.23.96-.267 1.98-.399 3-.405 1.02.006 2.04.138 3 .405 2.28-1.552 3.285-1.23 3.285-1.23.645 1.653.24 2.873.12 3.176.765.84 1.23 1.91 1.23 3.22 0 4.61-2.805 5.625-5.475 5.92.42.36.81 1.096.81 2.22 0 1.606-.015 2.896-.015 3.286 0 .315.21.69.825.57C20.565 22.092 24 17.592 24 12.297c0-6.627-5.373-12-12-12"/><text x="41" y="22.8" class="sans" font-size="13.5" font-weight="600" fill="#E6E8F0">GitHub</text></g><rect x=".5" y=".5" width="97" height="35" rx="18" fill="none" stroke="#232838"/></svg><svg x="108" y="0" width="113" height="36" viewBox="0 0 113 36"><title id="c1-ps-title">LinkedIn</title><defs><clipPath id="c1-ps-clip"><rect width="113" height="36" rx="18"/></clipPath><radialGradient id="c1-sg"><stop offset="0" stop-color="#0A66C2" stop-opacity="0.22"/><stop offset="1" stop-color="#0A66C2" stop-opacity="0"/></radialGradient><style>.sans{font-family:-apple-system,BlinkMacSystemFont,'Segoe UI','Inter',Helvetica,Arial,sans-serif}.mono{font-family:ui-monospace,SFMono-Regular,'JetBrains Mono','Cascadia Code',Consolas,Menlo,monospace}.fade{animation:ps-fade .6s ease-out backwards}@keyframes ps-fade{from{opacity:0}}.up{animation:ps-up .7s cubic-bezier(.2,.7,.2,1) backwards}@keyframes ps-up{from{opacity:0;transform:translateY(10px)}}@media (prefers-reduced-motion: reduce){*{animation:none!important;transition:none!important}}</style></defs><g clip-path="url(#c1-ps-clip)"><rect width="113" height="36" fill="#11141D"/></g><circle cx="23" cy="18" r="17" fill="url(#c1-sg)"/><g class="fade"><g><rect x="14" y="9" width="18" height="18" rx="4.32" fill="#0A66C2"/><text x="23" y="20.85" text-anchor="middle" class="sans" font-size="7.92" font-weight="800" letter-spacing="-0.16" fill="#E6E8F0">in</text></g><text x="41" y="22.8" class="sans" font-size="13.5" font-weight="600" fill="#E6E8F0">LinkedIn</text></g><rect x=".5" y=".5" width="112" height="35" rx="18" fill="none" stroke="#232838"/></svg><svg x="231" y="0" width="119" height="36" viewBox="0 0 119 36"><title id="c2-ps-title">Mastodon</title><defs><clipPath id="c2-ps-clip"><rect width="119" height="36" rx="18"/></clipPath><radialGradient id="c2-sg"><stop offset="0" stop-color="#6364FF" stop-opacity="0.22"/><stop offset="1" stop-color="#6364FF" stop-opacity="0"/></radialGradient><style>.sans{font-family:-apple-system,BlinkMacSystemFont,'Segoe UI','Inter',Helvetica,Arial,sans-serif}.mono{font-family:ui-monospace,SFMono-Regular,'JetBrains Mono','Cascadia Code',Consolas,Menlo,monospace}.fade{animation:ps-fade .6s ease-out backwards}@keyframes ps-fade{from{opacity:0}}.up{animation:ps-up .7s cubic-bezier(.2,.7,.2,1) backwards}@keyframes ps-up{from{opacity:0;transform:translateY(10px)}}@media (prefers-reduced-motion: reduce){*{animation:none!important;transition:none!important}}</style></defs><g clip-path="url(#c2-ps-clip)"><rect width="119" height="36" fill="#11141D"/></g><circle cx="23" cy="18" r="17" fill="url(#c2-sg)"/><g class="fade"><path transform="translate(14 9) scale(0.75)" fill="#6364FF" d="M23.268 5.313c-.35-2.578-2.617-4.61-5.304-5.004C17.51.242 15.792 0 11.813 0h-.03c-3.98 0-4.835.242-5.288.309C3.882.692 1.496 2.518.917 5.127.64 6.412.61 7.837.661 9.143c.074 1.874.088 3.745.26 5.611.118 1.24.325 2.47.62 3.68.55 2.237 2.777 4.098 4.96 4.857 2.336.792 4.849.923 7.256.38.265-.061.527-.132.786-.213.585-.184 1.27-.39 1.774-.753a.057.057 0 0 0 .023-.043v-1.809a.052.052 0 0 0-.02-.041.053.053 0 0 0-.046-.01 20.282 20.282 0 0 1-4.709.545c-2.73 0-3.463-1.284-3.674-1.818a5.593 5.593 0 0 1-.319-1.433.053.053 0 0 1 .066-.054c1.517.363 3.072.546 4.632.546.376 0 .75 0 1.125-.01 1.57-.044 3.224-.124 4.768-.422.038-.008.077-.015.11-.024 2.435-.464 4.753-1.92 4.989-5.604.008-.145.03-1.52.03-1.67.002-.512.167-3.63-.024-5.545zm-3.748 9.195h-2.561V8.29c0-1.309-.55-1.976-1.67-1.976-1.23 0-1.846.79-1.846 2.35v3.403h-2.546V8.663c0-1.56-.617-2.35-1.848-2.35-1.112 0-1.668.668-1.67 1.977v6.218H4.822V8.102c0-1.31.337-2.35 1.011-3.12.696-.77 1.608-1.164 2.74-1.164 1.311 0 2.302.5 2.962 1.498l.638 1.06.638-1.06c.66-.999 1.65-1.498 2.96-1.498 1.13 0 2.043.395 2.74 1.164.675.77 1.012 1.81 1.012 3.12z"/><text x="41" y="22.8" class="sans" font-size="13.5" font-weight="600" fill="#E6E8F0">Mastodon</text></g><rect x=".5" y=".5" width="118" height="35" rx="18" fill="none" stroke="#232838"/></svg><svg x="360" y="0" width="93" height="36" viewBox="0 0 93 36"><title id="c3-ps-title">Email</title><defs><clipPath id="c3-ps-clip"><rect width="93" height="36" rx="18"/></clipPath><radialGradient id="c3-sg"><stop offset="0" stop-color="#8B7CFF" stop-opacity="0.22"/><stop offset="1" stop-color="#8B7CFF" stop-opacity="0"/></radialGradient><style>.sans{font-family:-apple-system,BlinkMacSystemFont,'Segoe UI','Inter',Helvetica,Arial,sans-serif}.mono{font-family:ui-monospace,SFMono-Regular,'JetBrains Mono','Cascadia Code',Consolas,Menlo,monospace}.fade{animation:ps-fade .6s ease-out backwards}@keyframes ps-fade{from{opacity:0}}.up{animation:ps-up .7s cubic-bezier(.2,.7,.2,1) backwards}@keyframes ps-up{from{opacity:0;transform:translateY(10px)}}@media (prefers-reduced-motion: reduce){*{animation:none!important;transition:none!important}}</style></defs><g clip-path="url(#c3-ps-clip)"><rect width="93" height="36" fill="#11141D"/></g><circle cx="23" cy="18" r="17" fill="url(#c3-sg)"/><g class="fade"><path transform="translate(14 9) scale(0.75)" fill="none" stroke="#8B7CFF" stroke-width="1.9" stroke-linecap="round" stroke-linejoin="round" d="M4 5.5h16a1.5 1.5 0 0 1 1.5 1.5v10a1.5 1.5 0 0 1-1.5 1.5H4A1.5 1.5 0 0 1 2.5 17V7A1.5 1.5 0 0 1 4 5.5ZM3 6.8l9 6.4 9-6.4"/><text x="41" y="22.8" class="sans" font-size="13.5" font-weight="600" fill="#E6E8F0">Email</text></g><rect x=".5" y=".5" width="92" height="35" rx="18" fill="none" stroke="#232838"/></svg><svg x="463" y="0" width="66" height="36" viewBox="0 0 66 36"><title id="c4-ps-title">X</title><defs><clipPath id="c4-ps-clip"><rect width="66" height="36" rx="18"/></clipPath><radialGradient id="c4-sg"><stop offset="0" stop-color="#E6E8F0" stop-opacity="0.22"/><stop offset="1" stop-color="#E6E8F0" stop-opacity="0"/></radialGradient><style>.sans{font-family:-apple-system,BlinkMacSystemFont,'Segoe UI','Inter',Helvetica,Arial,sans-serif}.mono{font-family:ui-monospace,SFMono-Regular,'JetBrains Mono','Cascadia Code',Consolas,Menlo,monospace}.fade{animation:ps-fade .6s ease-out backwards}@keyframes ps-fade{from{opacity:0}}.up{animation:ps-up .7s cubic-bezier(.2,.7,.2,1) backwards}@keyframes ps-up{from{opacity:0;transform:translateY(10px)}}@media (prefers-reduced-motion: reduce){*{animation:none!important;transition:none!important}}</style></defs><g clip-path="url(#c4-ps-clip)"><rect width="66" height="36" fill="#11141D"/></g><circle cx="23" cy="18" r="17" fill="url(#c4-sg)"/><g class="fade"><path transform="translate(14 9) scale(0.75)" fill="#E6E8F0" d="M14.234 10.162 22.977 0h-2.072l-7.591 8.824L7.251 0H.258l9.168 13.343L.258 24H2.33l8.016-9.318L16.749 24h6.993zm-2.837 3.299-.929-1.329L3.076 1.56h3.182l5.965 8.532.929 1.329 7.754 11.09h-3.182z"/><text x="41" y="22.8" class="sans" font-size="13.5" font-weight="600" fill="#E6E8F0">X</text></g><rect x=".5" y=".5" width="65" height="35" rx="18" fill="none" stroke="#232838"/></svg><svg x="539" y="0" width="112" height="36" viewBox="0 0 112 36"><title id="c5-ps-title">mira.dev</title><defs><clipPath id="c5-ps-clip"><rect width="112" height="36" rx="18"/></clipPath><radialGradient id="c5-sg"><stop offset="0" stop-color="#8B7CFF" stop-opacity="0.22"/><stop offset="1" stop-color="#8B7CFF" stop-opacity="0"/></radialGradient><style>.sans{font-family:-apple-system,BlinkMacSystemFont,'Segoe UI','Inter',Helvetica,Arial,sans-serif}.mono{font-family:ui-monospace,SFMono-Regular,'JetBrains Mono','Cascadia Code',Consolas,Menlo,monospace}.fade{animation:ps-fade .6s ease-out backwards}@keyframes ps-fade{from{opacity:0}}.up{animation:ps-up .7s cubic-bezier(.2,.7,.2,1) backwards}@keyframes ps-up{from{opacity:0;transform:translateY(10px)}}@media (prefers-reduced-motion: reduce){*{animation:none!important;transition:none!important}}</style></defs><g clip-path="url(#c5-ps-clip)"><rect width="112" height="36" fill="#11141D"/></g><circle cx="23" cy="18" r="17" fill="url(#c5-sg)"/><g class="fade"><path transform="translate(14 9) scale(0.75)" fill="none" stroke="#8B7CFF" stroke-width="1.9" stroke-linecap="round" stroke-linejoin="round" d="M12 3a9 9 0 1 0 0 18 9 9 0 1 0 0-18ZM3.2 12h17.6M12 3c2.4 2.5 3.6 5.5 3.6 9s-1.2 6.5-3.6 9M12 3c-2.4 2.5-3.6 5.5-3.6 9s1.2 6.5 3.6 9"/><text x="41" y="22.8" class="sans" font-size="13.5" font-weight="600" fill="#E6E8F0">mira.dev</text></g><rect x=".5" y=".5" width="111" height="35" rx="18" fill="none" stroke="#232838"/></svg></svg>
