<svg xmlns="http://www.w3.org/2000/svg" width="1200" height="240" viewBox="0 0 1200 240" role="img" aria-labelledby="ps-title"><title id="ps-title">Mira Chen&#39;s GitHub stats: 2,083 contributions in the last 12 months</title><desc>Current streak: 1 day, Longest streak: 38 days, Commits: 1,500 past year, All-time: 12.8k since 2021, Best week: 146 in 7 days, On GitHub: 5 years</desc><defs><clipPath id="ps-clip"><rect width="1200" height="240" rx="20"/></clipPath><radialGradient id="ps-glow" cx="1" cy="0" r="1"><stop offset="0" stop-color="#3EC6E0" stop-opacity="0.193"/><stop offset="1" stop-color="#3EC6E0" stop-opacity="0"/></radialGradient><linearGradient id="st-hero" gradientUnits="userSpaceOnUse" x1="40" y1="0" x2="180.4" y2="0"><stop offset="0" stop-color="#8B7CFF"/><stop offset="1" stop-color="#3EC6E0"/></linearGradient><style>.sans{font-family:-apple-system,BlinkMacSystemFont,'Segoe UI','Inter',Helvetica,Arial,sans-serif}.mono{font-family:ui-monospace,SFMono-Regular,'JetBrains Mono','Cascadia Code',Consolas,Menlo,monospace}.fade{animation:ps-fade .6s ease-out backwards}@keyframes ps-fade{from{opacity:0}}.up{animation:ps-up .7s cubic-bezier(.2,.7,.2,1) backwards}@keyframes ps-up{from{opacity:0;transform:translateY(10px)}}@media (prefers-reduced-motion: reduce){*{animation:none!important;transition:none!important}}.st-bar{transform-box:fill-box;transform-origin:50% 100%;animation:st-grow .9s cubic-bezier(.2,.7,.2,1) backwards}@keyframes st-grow{from{transform:scaleY(0)}}</style></defs><g clip-path="url(#ps-clip)"><rect width="1200" height="240" fill="#11141D"/><rect width="1200" height="240" fill="url(#ps-glow)"/></g><text x="40" y="86.5" class="mono" font-size="12" letter-spacing="1.4" fill="#3EC6E0">ACTIVITY · LAST 12 MONTHS</text><text x="40" y="157.5" class="sans up" style="animation-delay:0.05s"><tspan font-size="58" font-weight="800" letter-spacing="-2" fill="url(#st-hero)">2,083</tspan><tspan dx="12" font-size="18" fill="#8B93A7">contributions</tspan></text><line x1="440" y1="40" x2="440" y2="200" stroke="#232838"/><g class="up" style="animation-delay:0.12s"><rect x="480" y="40" width="218.7" height="74" rx="12" fill="#161A26" stroke="#232838"/><path transform="translate(496 55) scale(0.875)" d="M8 1.6c1.4 2.5 4.3 4 4.3 7.7A4.3 4.3 0 0 1 3.7 9.3c0-2 1-3.3 2.2-4.2.1 1.4.8 2.4 1.8 2.8C7.3 5.9 7.3 3.7 8 1.6Z" fill="none" stroke="#3EC6E0" stroke-width="1.6" stroke-linecap="round" stroke-linejoin="round"/><text x="517" y="66.5" class="mono" font-size="11" letter-spacing="0.8" fill="#8B93A7">CURRENT STREAK</text><text x="496" y="98" class="sans"><tspan font-size="26" font-weight="700" letter-spacing="-.5" fill="#E6E8F0">1</tspan><tspan dx="6" font-size="13" fill="#8B93A7">day</tspan></text></g><g class="up" style="animation-delay:0.17s"><rect x="710.7" y="40" width="218.7" height="74" rx="12" fill="#161A26" stroke="#232838"/><path transform="translate(726.7 55) scale(0.875)" d="M5 2h6v4a3 3 0 0 1-6 0V2Z M5 3.4H2.6a2.4 2.4 0 0 0 2.7 3.1 M11 3.4h2.4a2.4 2.4 0 0 1-2.7 3.1 M8 9v3.4 M5 14.2h6" fill="none" stroke="#3EC6E0" stroke-width="1.6" stroke-linecap="round" stroke-linejoin="round"/><text x="747.7" y="66.5" class="mono" font-size="11" letter-spacing="0.8" fill="#8B93A7">LONGEST STREAK</text><text x="726.7" y="98" class="sans"><tspan font-size="26" font-weight="700" letter-spacing="-.5" fill="#E6E8F0">38</tspan><tspan dx="6" font-size="13" fill="#8B93A7">days</tspan></text></g><g class="up" style="animation-delay:0.22s"><rect x="941.3" y="40" width="218.7" height="74" rx="12" fill="#161A26" stroke="#232838"/><path transform="translate(957.3 55) scale(0.875)" d="M5.3 8a2.7 2.7 0 1 0 5.4 0a2.7 2.7 0 1 0 -5.4 0Z M1.2 8h4.1 M10.7 8h4.1" fill="none" stroke="#3EC6E0" stroke-width="1.6" stroke-linecap="round" stroke-linejoin="round"/><text x="978.3" y="66.5" class="mono" font-size="11" letter-spacing="0.8" fill="#8B93A7">COMMITS</text><text x="957.3" y="98" class="sans"><tspan font-size="26" font-weight="700" letter-spacing="-.5" fill="#E6E8F0">1,500</tspan><tspan dx="6" font-size="13" fill="#8B93A7">past year</tspan></text></g><g class="up" style="animation-delay:0.27s"><rect x="480" y="126" width="218.7" height="74" rx="12" fill="#161A26" stroke="#232838"/><path transform="translate(496 141) scale(0.875)" d="M8 1.7l6.3 3.2L8 8.1 1.7 4.9 8 1.7Z M1.7 8.1 8 11.3l6.3-3.2 M1.7 11.3 8 14.5l6.3-3.2" fill="none" stroke="#3EC6E0" stroke-width="1.6" stroke-linecap="round" stroke-linejoin="round"/><text x="517" y="152.5" class="mono" font-size="11" letter-spacing="0.8" fill="#8B93A7">ALL-TIME</text><text x="496" y="184" class="sans"><tspan font-size="26" font-weight="700" letter-spacing="-.5" fill="#E6E8F0">12.8k</tspan><tspan dx="6" font-size="13" fill="#8B93A7">since 2021</tspan></text></g><g class="up" style="animation-delay:0.32s"><rect x="710.7" y="126" width="218.7" height="74" rx="12" fill="#161A26" stroke="#232838"/><path transform="translate(726.7 141) scale(0.875)" d="M2 14.3h12 M4.2 11.6V8.2 M8 11.6V2.4 M11.8 11.6V5.6" fill="none" stroke="#3EC6E0" stroke-width="1.6" stroke-linecap="round" stroke-linejoin="round"/><text x="747.7" y="152.5" class="mono" font-size="11" letter-spacing="0.8" fill="#8B93A7">BEST WEEK</text><text x="726.7" y="184" class="sans"><tspan font-size="26" font-weight="700" letter-spacing="-.5" fill="#E6E8F0">146</tspan><tspan dx="6" font-size="13" fill="#8B93A7">in 7 days</tspan></text></g><g class="up" style="animation-delay:0.37s"><rect x="941.3" y="126" width="218.7" height="74" rx="12" fill="#161A26" stroke="#232838"/><path transform="translate(957.3 141) scale(0.875)" d="M1.7000000000000002 8a6.3 6.3 0 1 0 12.6 0a6.3 6.3 0 1 0 -12.6 0Z M8 4.4V8l2.4 1.6" fill="none" stroke="#3EC6E0" stroke-width="1.6" stroke-linecap="round" stroke-linejoin="round"/><text x="978.3" y="152.5" class="mono" font-size="11" letter-spacing="0.8" fill="#8B93A7">ON GITHUB</text><text x="957.3" y="184" class="sans"><tspan font-size="26" font-weight="700" letter-spacing="-.5" fill="#E6E8F0">5</tspan><tspan dx="6" font-size="13" fill="#8B93A7">years</tspan></text></g><rect x=".5" y=".5" width="1199" height="239" rx="20" fill="none" stroke="#232838"/></svg>
